<?xml version="1.0"?>
<svg xmlns="http://www.w3.org/2000/svg" viewBox="0 0 64 64" width="512" height="512"><g id="outline"><path d="M20,62H44V60a1,1,0,0,0-.219-.625,8.375,8.375,0,0,1-.736-9.438l.823-1.441a1,1,0,0,0-.161-1.2l-8.5-8.5a2.536,2.536,0,0,1,3.586-3.586l10.5,10.5,1.414-1.414L49,42.586V32.773l2.773,3.345A9,9,0,0,1,54,42.044V62h2V42.044a10.976,10.976,0,0,0-2.7-7.222L49,29.639V7a5.006,5.006,0,0,0-5-5H20a2.289,2.289,0,0,0-.244.012A5,5,0,0,0,15,7V57A5.006,5.006,0,0,0,20,62Zm.586-52,13.88,13.88L17,41.346V10ZM40,11a1,1,0,1,1-1-1A1,1,0,0,1,40,11Zm-1,3a3,3,0,0,0,3-3,2.966,2.966,0,0,0-.184-1H47v1.346L39.842,18.5,31.4,10h4.782A2.966,2.966,0,0,0,36,11,3,3,0,0,0,39,14Zm.13,6.625a1,1,0,0,0,.708.3h0a1,1,0,0,0,.707-.293L47,14.174v5.652l-6.737,6.737a3.059,3.059,0,0,0-.7.7L28.2,38.623a1,1,0,0,0,0,1.414L40.158,52a10.288,10.288,0,0,0-.206,2H36.505L25.377,42.863a1,1,0,0,0-1.414,0L17,49.826V44.174L36.587,24.587a1,1,0,0,0,0-1.414L23.414,10h5.169ZM42,28a1,1,0,1,1-1,1,.972.972,0,0,1,.152-.5l.35-.35A.972.972,0,0,1,42,28ZM26,54H24V52h2Zm1-4H23a1,1,0,0,0-1,1v3H17V52.654l7.669-7.67L33.677,54H28V51A1,1,0,0,0,27,50ZM17,57V56H40.111a10.368,10.368,0,0,0,1.671,4H20A3,3,0,0,1,17,57Zm24.753-8.833-.444.777c-.174.3-.306.62-.447.933L30.324,39.331l2.159-2.159a4.508,4.508,0,0,0,1.31,3.035ZM40.207,33.793a4.5,4.5,0,0,0-3.035-1.31l2.153-2.153a2.991,2.991,0,1,0,4-4L47,22.654V40.586ZM17.308,5.682a2.971,2.971,0,0,1,2.565-1.673A.673.673,0,0,0,20,4H44a3,3,0,0,1,3,3V8H17V7A2.993,2.993,0,0,1,17.308,5.682Z"/><path d="M23.293,30.707a1,1,0,0,0,1.414,0l1.879-1.879A8.187,8.187,0,0,0,29,23a5,5,0,0,0-10,0,8.187,8.187,0,0,0,2.414,5.828ZM24,20a3,3,0,0,1,3,3,6.2,6.2,0,0,1-1.828,4.414L24,28.586l-1.172-1.172A6.2,6.2,0,0,1,21,23,3,3,0,0,1,24,20Z"/><rect x="23" y="22" width="2" height="2"/></g></svg>
