<svg height="512pt" viewBox="0 -21 512 512" width="512pt" xmlns="http://www.w3.org/2000/svg"><path d="m399.53125 376.605469c0-17.542969-14.269531-31.816407-31.816406-31.816407-15.070313 0-28.183594 10.699219-31.179688 25.441407-1.796875 8.832031-9.566406 15.183593-18.585937 15.183593h-123.898438c-9.019531 0-16.789062-6.351562-18.585937-15.183593-2.996094-14.742188-16.109375-25.441407-31.179688-25.441407-17.546875 0-31.816406 14.273438-31.816406 31.816407 0 6.949219 2.195312 13.542969 6.355469 19.066406 5.082031 6.757813 5.078125 16.058594-.007813 22.8125-4.15625 5.511719-6.347656 12.105469-6.347656 19.058594 0 17.542969 14.269531 31.816406 31.816406 31.816406 15.066406 0 28.183594-10.699219 31.179688-25.441406 1.796875-8.835938 9.566406-15.183594 18.585937-15.183594h123.902344c9.015625 0 16.785156 6.347656 18.582031 15.183594 3 14.742187 16.113282 25.441406 31.183594 25.441406 17.542969 0 31.816406-14.273437 31.816406-31.816406 0-6.953125-2.195312-13.546875-6.351562-19.058594-5.085938-6.753906-5.085938-16.054687-.003906-22.8125 4.15625-5.523437 6.351562-12.117187 6.351562-19.066406zm0 0"/><path d="m160.671875 134.292969v-126.859375c-17.722656 2.960937-34.601563 6.761718-50.34375 11.351562v121.839844c2.992187 1.078125 6.050781 2.117188 9.183594 3.117188 12.839843-3.699219 26.628906-6.867188 41.160156-9.449219zm0 0"/><path d="m241 0c-17.160156.410156-34.007812 1.523438-50.332031 3.304688v126.621093c16.242187-1.878906 33.109375-3.078125 50.332031-3.519531zm0 0"/><path d="m321.332031 3.304688c-16.324219-1.78125-33.171875-2.894532-50.332031-3.304688v126.40625c17.222656.441406 34.089844 1.640625 50.332031 3.519531zm0 0"/><path d="m401.671875 140.625v-121.839844c-15.742187-4.589844-32.621094-8.390625-50.34375-11.351562v126.859375c14.53125 2.582031 28.332031 5.75 41.171875 9.449219 3.121094-1 6.179688-2.039063 9.171875-3.117188zm0 0"/><path d="m59.980469 110.125c1.269531 2.660156 6.898437 9.199219 20.347656 16.960938v-98.0625c-.089844.039062-.1875.070312-.277344.109374-26.269531 10.511719-46.53125 23.222657-60.082031 37.421876 4.3125.539062 10.570312 1.929687 16.980469 5.410156 14.109375 7.679687 22.460937 21.539062 23.03125 38.160156zm0 0"/><path d="m452.011719 110.125c.539062-22.621094 17.859375-41.171875 39.96875-43.632812-13.558594-14.179688-33.800781-26.867188-60.03125-37.359376-.089844-.039062-.1875-.070312-.277344-.109374v98.0625c13.457031-7.761719 19.066406-14.300782 20.339844-16.960938zm0 0"/><path d="m30.011719 111.644531c-.191407-14.929687-14.5-15.429687-15.011719-15.429687h-.089844c-8.25.050781-14.910156 6.75-14.910156 15v96.398437c0 32.28125 28.429688 61.429688 80.050781 82.082031 36.378907 14.558594 81.777344 24.070313 130.949219 27.679688v-17.230469c-11.25-11.421875-18.199219-27.082031-18.199219-44.332031 0-34.847656 28.347657-63.199219 63.199219-63.199219-62.210938 0-120.558594-9.578125-164.328125-26.988281-38.320313-15.230469-61.371094-35.429688-61.660156-53.980469zm0 0"/><path d="m497 96.214844c-8.28125 0-15 6.71875-15 15 0 18.628906-22.878906 38.898437-61.191406 54.21875-43.808594 17.53125-102.339844 27.179687-164.808594 27.179687 34.851562 0 63.199219 28.351563 63.199219 63.199219 0 17.25-6.949219 32.910156-18.199219 44.332031v17.230469c49.171875-3.609375 94.570312-13.121094 130.949219-27.679688 51.621093-20.652343 80.050781-49.800781 80.050781-82.082031v-96.398437c0-8.28125-6.71875-15-15-15zm0 0"/><path d="m271 355.414062v-69.996093c10.789062-5.488281 18.199219-16.691407 18.199219-29.605469 0-18.304688-14.894531-33.199219-33.199219-33.199219s-33.199219 14.894531-33.199219 33.199219c0 12.910156 7.410157 24.117188 18.199219 29.605469v69.996093zm0 0"/></svg>