<svg id="Layer_1" height="512" viewBox="0 0 512 512" width="512" xmlns="http://www.w3.org/2000/svg" data-name="Layer 1"><ellipse cx="327.741" cy="176.734" rx="10.5" ry="14.445"/><ellipse cx="256" cy="245.601" rx="53.184" ry="61.792"/><ellipse cx="228.563" cy="143.255" rx="12.931" ry="17.458"/><ellipse cx="283.437" cy="143.255" rx="12.931" ry="17.458"/><ellipse cx="184.259" cy="176.734" rx="10.5" ry="14.445"/><path d="m256 24.272c-109.142 0-197.935 84.77-197.935 188.965 0 33.423 10.435 68.671 31.014 104.763 16.629 29.162 39.861 58.915 69.053 88.429a677.982 677.982 0 0 0 97.868 81.299 677.982 677.982 0 0 0 97.868-81.3c29.192-29.514 52.424-59.267 69.053-88.429 20.579-36.093 31.014-71.341 31.014-104.764 0-104.193-88.793-188.963-197.935-188.963zm0 349.228c-85.408 0-154.893-69.485-154.893-154.893s69.485-154.89 154.893-154.89 154.893 69.483 154.893 154.893-69.485 154.89-154.893 154.89z"/><path d="m256 75.717c-78.792 0-142.893 64.1-142.893 142.893s64.101 142.89 142.893 142.89 142.893-64.1 142.893-142.89-64.101-142.893-142.893-142.893zm27.437 38.083c13.747 0 24.931 13.214 24.931 29.457s-11.184 29.458-24.931 29.458-24.931-13.214-24.931-29.458 11.184-29.457 24.931-29.457zm-54.874 0c13.747 0 24.931 13.214 24.931 29.457s-11.184 29.458-24.931 29.458-24.931-13.214-24.931-29.458 11.184-29.457 24.931-29.457zm-66.8 62.936c0-14.582 10.093-26.445 22.5-26.445s22.5 11.863 22.5 26.445-10.093 26.446-22.5 26.446-22.504-11.866-22.504-26.448zm94.237 142.658c-35.942 0-65.184-33.1-65.184-73.792s29.242-73.793 65.184-73.793 65.184 33.1 65.184 73.793-29.242 73.792-65.184 73.792zm71.741-116.214c-12.406 0-22.5-11.864-22.5-26.446s10.093-26.445 22.5-26.445 22.5 11.863 22.5 26.445-10.093 26.446-22.5 26.446z"/></svg>